<?xml version="1.0" standalone="no"?>
<!DOCTYPE svg PUBLIC "-//W3C//DTD SVG 20010904//EN"
 "http://www.w3.org/TR/2001/REC-SVG-20010904/DTD/svg10.dtd">
<svg version="1.0" xmlns="http://www.w3.org/2000/svg"
 width="360.000000pt" height="360.000000pt" viewBox="0 0 360.000000 360.000000"
 preserveAspectRatio="xMidYMid meet">

<g transform="translate(0.000000,360.000000) scale(0.100000,-0.100000)"
fill="#000000" stroke="none">
<path d="M1535 3303 c-293 -38 -563 -109 -684 -180 -25 -14 -70 -49 -100 -77
-210 -198 -292 -487 -217 -769 82 -307 353 -914 565 -1262 192 -316 504 -682
607 -713 53 -15 182 -15 211 1 49 27 270 258 389 407 72 90 194 259 202 280 3
8 9 17 12 20 17 13 143 244 231 425 241 496 362 890 346 1124 -31 424 -356
689 -892 726 -49 4 -133 10 -185 15 -92 9 -424 11 -485 3z m312 -329 c26 -5
29 -9 25 -35 -3 -22 0 -29 12 -29 9 0 16 -7 16 -16 0 -10 -6 -14 -14 -11 -8 3
-17 -1 -20 -9 -4 -10 0 -14 12 -12 10 2 17 -3 17 -12 0 -9 -7 -14 -17 -12 -11
2 -18 -3 -18 -13 0 -12 6 -15 21 -10 17 6 20 3 17 -12 -2 -10 -11 -17 -21 -15
-13 2 -17 -5 -17 -31 0 -18 -5 -38 -10 -43 -8 -8 -10 -158 -8 -465 3 -482 3
-482 52 -521 29 -24 47 -22 91 7 20 15 39 24 41 22 13 -12 4 -73 -20 -138 -26
-72 -27 -78 -12 -107 9 -17 33 -51 54 -75 63 -73 84 -113 89 -176 14 -150 -85
-258 -267 -291 -156 -28 -306 40 -377 172 -12 23 -18 55 -18 108 0 93 22 144
95 225 60 66 60 68 10 186 -32 74 -32 76 -16 111 18 37 84 80 143 93 l31 6 4
402 c3 317 1 408 -9 431 -7 16 -13 44 -13 62 0 27 -3 31 -20 27 -14 -4 -20 0
-20 12 0 12 6 16 20 12 15 -4 20 0 20 13 0 14 -5 17 -21 13 -16 -4 -20 -2 -17
8 3 8 13 13 22 13 9 -1 16 5 16 13 0 8 -8 13 -17 11 -11 -2 -18 3 -18 12 0 8
8 14 18 14 15 -2 17 3 12 26 -5 24 -3 29 17 33 37 7 83 7 115 1z"/>
<path d="M1810 2145 l-5 -790 -5 770 -5 770 -3 -757 c-1 -497 -5 -758 -12
-758 -7 0 -11 257 -12 748 l-3 747 -5 -740 -5 -740 -33 -2 c-60 -2 -93 -55
-72 -117 5 -17 43 -64 83 -104 l73 -71 78 78 c64 65 78 85 83 118 9 71 -61
120 -129 89 -17 -8 -18 34 -21 770 l-2 779 -5 -790z"/>
</g>
</svg>
